<svg version="1.1" xmlns="http://www.w3.org/2000/svg" xmlns:xlink="http://www.w3.org/1999/xlink" width="46.68271" height="82.27593" viewBox="0,0,46.68271,82.27593"><g transform="translate(-216.65865,-138.86204)"><g data-paper-data="{&quot;isPaintingLayer&quot;:true}" fill="#000000" fill-rule="nonzero" stroke="#ffffff" stroke-width="2" stroke-linecap="round" stroke-linejoin="miter" stroke-miterlimit="10" stroke-dasharray="" stroke-dashoffset="0" style="mix-blend-mode: normal"><path d="M217.65865,210.89831c0,-16.39656 0,-49.78729 0,-59.67032c0,-5.38877 4.35326,-11.36595 7.98234,-11.36595c5.59203,0 22.09992,0 30.9469,0c3.46396,0 5.75347,3.45886 5.75347,6.21455c0,0.9155 0,1.75338 0,2.36106c0,1.81014 -2.23095,4.73218 -5.42248,4.73218c-6.21412,0 -16.06982,0 -20.18995,0c-3.58809,0 -8.47881,4.75138 -8.47881,11.58059c0,14.58806 0,38.65732 0,46.14792c0,4.39963 -2.98887,9.23963 -5.09149,9.23963c-0.43569,0 -0.83334,0 -1.15844,0c-1.57863,0 -4.34151,-3.62265 -4.34151,-9.23963z"/></g></g></svg>