<svg version="1.1" xmlns="http://www.w3.org/2000/svg" xmlns:xlink="http://www.w3.org/1999/xlink" width="52.61377" height="71.96299" viewBox="0,0,52.61377,71.96299"><g transform="translate(-213.69312,-144.01851)"><g data-paper-data="{&quot;isPaintingLayer&quot;:true}" fill="#000000" fill-rule="nonzero" stroke="#ffffff" stroke-width="1.5" stroke-linecap="round" stroke-linejoin="miter" stroke-miterlimit="10" stroke-dasharray="" stroke-dashoffset="0" style="mix-blend-mode: normal"><path d="M214.44314,209.98131c0,-13.54488 0,-46.52201 0,-55.56111c0,-4.60133 3.39815,-9.65169 5.95873,-9.65169c4.64374,0 37.55891,0 41.72582,0c1.64037,0 3.4292,2.24284 3.4292,5.90225c0,14.48109 0,51.14515 0,58.79013c0,2.73362 -1.27578,5.27086 -2.3184,5.27086c-0.31208,0 -0.60327,0 -0.8331,0c-0.90212,0 -2.57677,-1.95553 -2.57677,-5.16587c0,-13.10581 0,-47.12398 0,-54.38086c0,-2.66188 -1.26862,-5.16925 -3.0698,-5.16925c-3.65032,0 -9.48794,0 -11.38569,0c-1.18074,0 -2.52053,1.70013 -2.53977,4.53739c-0.08778,12.94249 -0.33606,49.54693 -0.38238,56.37623c-0.01457,2.14758 -1.12488,4.05223 -1.98388,4.05225c-0.246,0 -0.47244,0 -0.64797,0c-0.65581,0 -1.80199,-1.55084 -1.80199,-4.15596c0,-12.05956 0,-46.71148 0,-54.69581c0,-3.19275 -1.49908,-6.36396 -3.56687,-6.36396c-3.62606,0 -9.00099,0 -11.10799,0c-1.69065,0 -3.83185,2.53327 -3.83185,6.57393c0,13.99157 0,46.05699 0,53.60159c0,3.18399 -1.11009,5.29008 -1.99985,5.29008c-0.23475,0 -0.45416,0 -0.63381,0c-0.82723,0 -2.43365,-1.48795 -2.43365,-5.25019z"/></g></g></svg>