<svg version="1.1" xmlns="http://www.w3.org/2000/svg" xmlns:xlink="http://www.w3.org/1999/xlink" width="57.00691" height="74.55392" viewBox="0,0,57.00691,74.55392"><g transform="translate(-211.49655,-142.72303)"><g data-paper-data="{&quot;isPaintingLayer&quot;:true}" fill="#000000" fill-rule="nonzero" stroke="#ffffff" stroke-width="2" stroke-linecap="round" stroke-linejoin="miter" stroke-miterlimit="10" stroke-dasharray="" stroke-dashoffset="0" style="mix-blend-mode: normal"><path d="M236.54975,185.12609c7.84792,0 22.04546,0 26.22193,0c2.27386,0 4.73178,2.69416 4.73178,6.30903c0,5.55831 0,13.29345 0,16.75838c0,3.3851 -2.21471,8.08345 -5.71757,8.08345c-11.50584,0 -36.90981,0 -43.37462,0c-2.92713,0 -5.91472,-3.06859 -5.91472,-7.8863c0,-15.19597 0,-47.79375 0,-56.38701c0,-4.06231 3.22124,-8.28061 6.30903,-8.28061c6.66407,0 32.29747,0 43.17747,0c3.0406,0 4.92893,2.25744 4.92893,3.54883c0,0.46167 0,1.10223 0,1.77442c0,1.58763 -2.50287,3.35168 -4.92893,3.35168c-5.07041,0 -24.15839,0 -33.71391,0c-3.34387,0 -5.52041,4.28702 -5.52041,8.08345c0,6.62459 0,28.16407 0,39.23432c0,4.05351 2.06006,6.70335 5.12609,6.70335c7.44605,0 20.8252,0 25.03899,0c2.49903,0 5.32325,-2.00643 5.32325,-4.14031c0,-1.45305 0,-2.9652 0,-3.94315c0,-1.95905 -2.05219,-5.32325 -4.92893,-5.32325c-5.37797,0 -13.6377,0 -16.75838,0c-2.37311,0 -5.32325,-1.804 -5.32325,-3.35168c0,-0.60642 0,-1.17348 0,-1.57726c0,-1.111 2.13894,-2.95736 5.32325,-2.95736z"/></g></g></svg>