<svg version="1.1" xmlns="http://www.w3.org/2000/svg" xmlns:xlink="http://www.w3.org/1999/xlink" width="616.625" height="346.5" viewBox="0,0,616.625,346.5"><g transform="translate(-15.75,-8.75)"><g data-paper-data="{&quot;isPaintingLayer&quot;:true}" fill-rule="nonzero" stroke-linejoin="miter" stroke-miterlimit="10" stroke-dasharray="" stroke-dashoffset="0" style="mix-blend-mode: normal"><text transform="translate(512.75,30.5) scale(0.5,0.5)" font-size="40" xml:space="preserve" fill="#ffffff" fill-rule="nonzero" stroke="none" stroke-width="1" stroke-linecap="butt" stroke-linejoin="miter" stroke-miterlimit="10" stroke-dasharray="" stroke-dashoffset="0" font-family="Sans Serif" font-weight="normal" text-anchor="start" style="mix-blend-mode: normal"><tspan x="0" dy="0">Ship</tspan></text><path d="M525.15254,65.37742l6.46388,-20.65552l6.23106,20.36726" fill="none" stroke="#ffffff" stroke-width="2" stroke-linecap="round"/><path d="M536.98472,62.27861h-10.80508" fill="none" stroke="#ffffff" stroke-width="2" stroke-linecap="round"/><text transform="translate(498.75,84.20846) scale(0.34472,0.34472)" font-size="40" xml:space="preserve" fill="#ffffff" fill-rule="nonzero" stroke="none" stroke-width="1" stroke-linecap="butt" stroke-linejoin="miter" stroke-miterlimit="10" stroke-dasharray="" stroke-dashoffset="0" font-family="Sans Serif" font-weight="normal" text-anchor="start" style="mix-blend-mode: normal"><tspan x="0" dy="0">This is you</tspan></text><text transform="translate(495.25,125.5) scale(0.5,0.5)" font-size="40" xml:space="preserve" fill="#ffffff" fill-rule="nonzero" stroke="none" stroke-width="1" stroke-linecap="butt" stroke-linejoin="miter" stroke-miterlimit="10" stroke-dasharray="" stroke-dashoffset="0" font-family="Sans Serif" font-weight="normal" text-anchor="start" style="mix-blend-mode: normal"><tspan x="0" dy="0">Asteroid</tspan></text><path d="M536.90603,179.90447l-18.90399,-7.27906l7.0813,-11.65259l-10.36369,-15.61953l21.98447,-11.79849l17.48026,22.41733z" fill="#000000" stroke="#ffffff" stroke-width="2" stroke-linecap="round"/><text transform="translate(496.75,195.34706) scale(0.35673,0.35673)" font-size="40" xml:space="preserve" fill="#ffffff" fill-rule="nonzero" stroke="none" stroke-width="1" stroke-linecap="butt" stroke-linejoin="miter" stroke-miterlimit="10" stroke-dasharray="" stroke-dashoffset="0" font-family="Sans Serif" font-weight="normal" text-anchor="start" style="mix-blend-mode: normal"><tspan x="0" dy="0">Don't touch</tspan></text><text transform="translate(464.75,234) scale(0.5,0.5)" font-size="40" xml:space="preserve" fill="#ffffff" fill-rule="nonzero" stroke="none" stroke-width="1" stroke-linecap="butt" stroke-linejoin="miter" stroke-miterlimit="10" stroke-dasharray="" stroke-dashoffset="0" font-family="Sans Serif" font-weight="normal" text-anchor="start" style="mix-blend-mode: normal"><tspan x="0" dy="0">Growth Pellet</tspan></text><path d="M527.5,256c0,-4.41828 3.58172,-8 8,-8c4.41828,0 8,3.58172 8,8c0,4.41828 -3.58172,8 -8,8c-4.41828,0 -8,-3.58172 -8,-8z" fill="#000000" stroke="#ffffff" stroke-width="2" stroke-linecap="butt"/><path d="M535.18254,252.06348v7.61904" fill="none" stroke="#ffffff" stroke-width="2" stroke-linecap="round"/><path d="M531.05556,256h8.88889" fill="none" stroke="#ffffff" stroke-width="2" stroke-linecap="round"/><text transform="translate(87.25,349) scale(0.5,0.5)" font-size="40" xml:space="preserve" fill="none" fill-rule="nonzero" stroke="none" stroke-width="1" stroke-linecap="butt" stroke-linejoin="miter" stroke-miterlimit="10" stroke-dasharray="" stroke-dashoffset="0" font-family="Sans Serif" font-weight="normal" text-anchor="start" style="mix-blend-mode: normal"><tspan x="0" dy="0">Secret text :o</tspan></text><text transform="translate(441.25,288.11991) scale(0.38038,0.38038)" font-size="40" xml:space="preserve" fill="#ffffff" fill-rule="nonzero" stroke="none" stroke-width="1" stroke-linecap="butt" stroke-linejoin="miter" stroke-miterlimit="10" stroke-dasharray="" stroke-dashoffset="0" font-family="Sans Serif" font-weight="normal" text-anchor="start" style="mix-blend-mode: normal"><tspan x="0" dy="0">  Make you a little bigger.</tspan><tspan x="0" dy="46.150000000000006px">Asteroids can touch it too!</tspan></text><path d="M138,45l9.5,-26.5l5,24" fill="none" stroke="#ffffff" stroke-width="2" stroke-linecap="round"/><path d="M140,31.5l14.5,-0.5" fill="none" stroke="#ffffff" stroke-width="2" stroke-linecap="round"/><path d="M178.5,23h17" fill="none" stroke="#ffffff" stroke-width="2" stroke-linecap="round"/><path d="M187,23v18" fill="none" stroke="#ffffff" stroke-width="2" stroke-linecap="round"/><path d="M203,43v-22h16.5v22z" fill="none" stroke="#ffffff" stroke-width="2" stroke-linecap="butt"/><path d="M225,23h17" fill="none" stroke="#ffffff" stroke-width="2" stroke-linecap="round"/><path d="M233.5,41v-18" fill="none" stroke="#ffffff" stroke-width="2" stroke-linecap="round"/><path d="M243,43l9.5,-22.5l5,20.37736" fill="none" stroke="#ffffff" stroke-width="2" stroke-linecap="round"/><path d="M245,31.53774l14.5,-0.42452" fill="none" stroke="#ffffff" stroke-width="2" stroke-linecap="round"/><path d="M269,19v23" fill="none" stroke="#ffffff" stroke-width="2" stroke-linecap="round"/><path d="M277.5,19v23" fill="none" stroke="#ffffff" stroke-width="2" stroke-linecap="round"/><path d="M292.5,31.5l-7.5,-11.5" fill="none" stroke="#ffffff" stroke-width="2" stroke-linecap="round"/><path d="M286,42l15,-23.5" fill="none" stroke="#ffffff" stroke-width="2" stroke-linecap="round"/><path d="M111,82.5v-21l13,20v-20" fill="none" stroke="#ffffff" stroke-width="2" stroke-linecap="round"/><path d="M132,84v-22h11v22z" fill="none" stroke="#ffffff" stroke-width="2" stroke-linecap="butt"/><path d="M150.5,83v-21.5h11.5" fill="none" stroke="#ffffff" stroke-width="2" stroke-linecap="round"/><path d="M169.5,84v-23h20.5v22" fill="none" stroke="#ffffff" stroke-width="2" stroke-linecap="round"/><path d="M179.9434,61.5v22" fill="none" stroke="#ffffff" stroke-width="2" stroke-linecap="round"/><path d="M197.5,83.5l9.5,-22.5l5,20.37736" fill="none" stroke="#ffffff" stroke-width="2" stroke-linecap="round"/><path d="M214,71.61322l-14.5,0.42452" fill="none" stroke="#ffffff" stroke-width="2" stroke-linecap="round"/><path d="M221.5,82.5v-23" fill="none" stroke="#ffffff" stroke-width="2" stroke-linecap="round"/><path d="M250,73h5.5v8.5h-13v-20h12" fill="none" stroke="#ffffff" stroke-width="2" stroke-linecap="round"/><path d="M262,83.5l9.5,-22.5l5,20.37736" fill="none" stroke="#ffffff" stroke-width="2" stroke-linecap="round"/><path d="M278.5,71.61322l-14.5,0.42452" fill="none" stroke="#ffffff" stroke-width="2" stroke-linecap="round"/><path d="M284,84v-23h20.5v22" fill="none" stroke="#ffffff" stroke-width="2" stroke-linecap="round"/><path d="M294.4434,61.5v22" fill="none" stroke="#ffffff" stroke-width="2" stroke-linecap="round"/><path d="M328,82.5h-13.5v-22.5h13.5" fill="none" stroke="#ffffff" stroke-width="2" stroke-linecap="round"/><path d="M327.00001,71.25h-11.91667" fill="none" stroke="#ffffff" stroke-width="2" stroke-linecap="round"/><path d="M200,137.57143v-37.88571h21.54286v37.88571z" fill="none" stroke="#ffffff" stroke-width="3" stroke-linecap="butt"/><path d="M231.94286,138.31428v-37.14286h20.05714" fill="none" stroke="#ffffff" stroke-width="3" stroke-linecap="round"/><path d="M249.02857,121.22857h-15.6" fill="none" stroke="#ffffff" stroke-width="3" stroke-linecap="round"/><path d="M21.75,227.75l18,-58.5l12.5,56" fill="none" stroke="#ffffff" stroke-width="5" stroke-linecap="round"/><path d="M18.25,200.25l46.5,0.5" fill="none" stroke="#ffffff" stroke-width="5" stroke-linecap="round"/><path d="M108.25,169.75h-25.5v25.5h24.5v25h-27" fill="none" stroke="#ffffff" stroke-width="5" stroke-linecap="round"/><path d="M122.25,169.75h33" fill="none" stroke="#ffffff" stroke-width="5" stroke-linecap="round"/><path d="M138.75,169.75v51" fill="none" stroke="#ffffff" stroke-width="5" stroke-linecap="round"/><path d="M206.25,223.25h-33.5v-55h31.5" fill="none" stroke="#ffffff" stroke-width="5" stroke-linecap="round"/><path d="M172.75,195.25h32" fill="none" stroke="#ffffff" stroke-width="5" stroke-linecap="round"/><path d="M224.25,223.75v-56h24.5" fill="none" stroke="#ffffff" stroke-width="5" stroke-linecap="round"/><path d="M309.75,167.5v0" fill="none" stroke="#ffffff" stroke-width="5" stroke-linecap="round"/><path d="M309.75,225.75v-42" fill="none" stroke="#ffffff" stroke-width="5" stroke-linecap="round"/><path d="M332.25,228.25v-62.5l20,3v53z" fill="none" stroke="#ffffff" stroke-width="5" stroke-linecap="round"/><path d="M400.75,169.75h-25.5v25.5h24.5v25h-27" fill="none" stroke="#ffffff" stroke-width="5" stroke-linecap="round"/><path d="M280.90603,214.90447l-18.90399,-7.27906l7.0813,-11.65259l-10.36369,-15.61953l21.98447,-11.79849l17.48026,22.41733z" fill="#000000" stroke="#ffffff" stroke-width="2" stroke-linecap="round"/><path d="M224.68006,244.64487l16.6056,-13.88115l-5.77038,20.50254" fill="none" stroke="#ffffff" stroke-width="2.5" stroke-linecap="round"/><path d="M227.21954,242.59339l9.08955,5.84207" fill="none" stroke="#ffffff" stroke-width="2.5" stroke-linecap="round"/><path d="M250.33333,215c0,-1.38071 1.11929,-2.5 2.5,-2.5c1.38071,0 2.5,1.11929 2.5,2.5c0,1.38071 -1.11929,2.5 -2.5,2.5c-1.38071,0 -2.5,-1.11929 -2.5,-2.5z" fill="#ffffff" stroke="none" stroke-width="0.5" stroke-linecap="butt"/><path d="M25.53324,294.30649v-50.17606h27.9828v20.26341h-27.01788" fill="none" stroke="#ffffff" stroke-width="5" stroke-linecap="round"/><path d="M77.04994,243.7341v52.18275" fill="none" stroke="#ffffff" stroke-width="5" stroke-linecap="round"/><path d="M122.77709,244.81003v50.56886h-24.2085v-49.49292" fill="none" stroke="#ffffff" stroke-width="5" stroke-linecap="round"/><path d="M170.11815,243.7341h-30.66409v23.67053h29.05019v28.51223h-31.20205" fill="none" stroke="#ffffff" stroke-width="5" stroke-linecap="round"/><text transform="translate(351,349) scale(0.5,0.5)" font-size="40" xml:space="preserve" fill="#ffffff" fill-rule="nonzero" stroke="none" stroke-width="1" stroke-linecap="butt" stroke-linejoin="miter" stroke-miterlimit="10" stroke-dasharray="" stroke-dashoffset="0" font-family="Sans Serif" font-weight="normal" text-anchor="start" style="mix-blend-mode: normal"><tspan x="0" dy="0">(ATNGOAPP BETA! UNSTABLE)</tspan></text></g></g></svg>