<svg version="1.1" xmlns="http://www.w3.org/2000/svg" xmlns:xlink="http://www.w3.org/1999/xlink" width="57.00691" height="74.55392" viewBox="0,0,57.00691,74.55392"><g transform="translate(-211.49656,-142.72303)"><g data-paper-data="{&quot;isPaintingLayer&quot;:true}" fill="#000000" fill-rule="nonzero" stroke="#ffffff" stroke-width="2" stroke-linecap="round" stroke-linejoin="miter" stroke-miterlimit="10" stroke-dasharray="" stroke-dashoffset="0" style="mix-blend-mode: normal"><path d="M236.54976,174.87391c-3.18431,0 -5.32325,-1.84636 -5.32325,-2.95736c0,-0.40378 0,-0.97084 0,-1.57726c0,-1.54768 2.95014,-3.35168 5.32325,-3.35168c3.12068,0 11.38041,0 16.75838,0c2.87674,0 4.92893,-3.3642 4.92893,-5.32325c0,-0.97795 0,-2.4901 0,-3.94315c0,-2.13388 -2.82422,-4.14031 -5.32325,-4.14031c-4.21379,0 -17.59294,0 -25.03899,0c-3.06603,0 -5.12609,2.64984 -5.12609,6.70335c0,11.07025 0,32.60973 0,39.23432c0,3.79643 2.17654,8.08345 5.52041,8.08345c9.55552,0 28.6435,0 33.71391,0c2.42606,0 4.92893,1.76405 4.92893,3.35168c0,0.67219 0,1.31275 0,1.77442c0,1.29139 -1.88833,3.54883 -4.92893,3.54883c-10.88,0 -36.5134,0 -43.17747,0c-3.08779,0 -6.30903,-4.2183 -6.30903,-8.28061c0,-8.59326 0,-41.19104 0,-56.38701c0,-4.81771 2.98759,-7.8863 5.91472,-7.8863c6.46481,0 31.86878,0 43.37462,0c3.50286,0 5.71757,4.69835 5.71757,8.08345c0,3.46493 0,11.20007 0,16.75838c0,3.61487 -2.45792,6.30903 -4.73178,6.30903c-4.17647,0 -18.37401,0 -26.22193,0z" data-paper-data="{&quot;index&quot;:null}"/></g></g></svg>