<svg version="1.1" xmlns="http://www.w3.org/2000/svg" xmlns:xlink="http://www.w3.org/1999/xlink" width="53.24355" height="81.5088" viewBox="0,0,53.24355,81.5088"><g transform="translate(-213.37823,-139.26021)"><g data-paper-data="{&quot;isPaintingLayer&quot;:true}" fill-rule="nonzero" stroke-width="2" stroke-linecap="round" stroke-linejoin="miter" stroke-miterlimit="10" stroke-dasharray="" stroke-dashoffset="0" style="mix-blend-mode: normal"><path d="M224.96147,140.26021c6.03809,0.02435 21.79111,0.08787 31.82257,0.12832c5.18238,0.0209 8.83774,6.84051 8.83774,12.73353c0,9.36328 0,37.7953 0,54.34295c0,7.31235 -5.05298,12.304 -9.24985,12.304c-5.61324,0 -20.72612,0 -31.20071,0c-6.21223,0 -10.79299,-4.69682 -10.79299,-11.68412c0,-17.13162 0,-48.0324 0,-57.23573c0,-5.089 5.91128,-10.60778 10.58323,-10.58895z" fill="#000000" stroke="#ffffff"/><path d="M224.09453,165.29923c0,-4.43705 3.86091,-9.99618 6.86167,-9.98408c3.83219,0.01546 13.72212,0.05534 19.83673,0.07999c3.01531,0.01216 5.11254,4.33264 5.11254,8.04444c0,5.11544 0,19.25066 0,29.54769c0,6.6401 -3.54245,11.68412 -8.00526,11.68412c-5.68589,0 -12.86576,0 -16.11692,0c-3.27619,0 -7.68875,-3.94625 -7.68875,-9.41122c0,-9.74634 0,-24.32317 0,-29.96094z" fill="#ffffff" stroke="#000000"/></g></g></svg>