<svg version="1.1" xmlns="http://www.w3.org/2000/svg" xmlns:xlink="http://www.w3.org/1999/xlink" width="58.18985" height="71.59655" viewBox="0,0,58.18985,71.59655"><g transform="translate(-210.90508,-144.20173)"><g data-paper-data="{&quot;isPaintingLayer&quot;:true}" fill-rule="nonzero" stroke="#ffffff" stroke-width="2" stroke-linejoin="miter" stroke-miterlimit="10" stroke-dasharray="" stroke-dashoffset="0" style="mix-blend-mode: normal"><path d="M211.90508,207.72565c0,-13.47253 0,-42.27519 0,-51.26091c0,-5.2165 5.42848,-11.26301 9.96553,-11.26301c7.20534,0 28.91844,0 39.82579,0c3.88454,0 6.39853,3.42825 6.39853,8.69997c0,15.3562 0,46.35459 0,53.82396c0,3.1809 -1.72105,6.28399 -3.44117,6.28399c-0.95191,0 -1.90353,0 -2.56304,0c-1.59287,0 -4.44513,-3.3039 -4.44513,-5.88968c0,-3.02116 -0.06116,-10.42203 -0.10938,-15.78771c-0.03138,-3.49186 -3.05202,-6.1218 -5.61954,-6.1218c-3.85409,0 -15.1011,0 -22.16667,0c-3.52943,0 -6.03841,3.32447 -6.06693,7.46035c-0.03502,5.07843 -0.07848,11.38025 -0.09829,14.25295c-0.02023,2.9328 -1.80756,6.87452 -3.68573,6.87452c-1.3119,0 -2.68139,0 -3.54883,0c-1.65885,0 -4.44513,-2.74567 -4.44513,-7.07262z" fill="#000000" stroke-linecap="round"/><path d="M223.8331,172.04016c0,-2.3397 0,-4.9954 0,-6.50619c0,-2.26701 3.59906,-5.86843 6.51528,-5.86843c4.05453,0 15.18533,0 21.88447,0c3.14563,0 5.31416,2.0591 5.31416,4.48832c0,2.32236 0,4.98301 0,6.50619c0,2.3052 -1.88961,6.01549 -4.72269,6.01549c-7.13873,0 -20.26785,0 -24.25036,0c-2.2503,0 -4.74087,-2.13762 -4.74087,-4.63539z" fill="none" stroke-linecap="butt"/></g></g></svg>