<svg version="1.1" xmlns="http://www.w3.org/2000/svg" xmlns:xlink="http://www.w3.org/1999/xlink" width="56.69122" height="73.88195" viewBox="0,0,56.69122,73.88195"><g transform="translate(-211.65439,-143.05902)"><g data-paper-data="{&quot;isPaintingLayer&quot;:true}" fill="#000000" fill-rule="nonzero" stroke="#ffffff" stroke-width="2" stroke-linecap="round" stroke-linejoin="miter" stroke-miterlimit="10" stroke-dasharray="" stroke-dashoffset="0" style="mix-blend-mode: normal"><path d="M219.9763,148.89538c0,4.49874 0,21.59251 0,32.09801c0,4.96278 2.40136,10.59661 4.26138,12.25518c2.19549,1.95771 7.59485,6.77231 11.35873,10.12854c2.28275,2.03552 6.77321,1.04097 8.80717,-0.76445c2.07904,-1.84544 6.72154,-5.96631 10.0992,-8.96446c2.24723,-1.99473 3.93457,-5.81318 3.93457,-8.12999c0,-5.26273 0,-26.45812 0,-36.34003c0,-3.12544 2.09729,-5.11916 3.35602,-5.11916c0.37367,0 0.87061,0 1.41401,0c1.81106,0 4.13823,2.05547 4.13823,5.26056c0,9.65075 0,29.72458 0,35.49163c0,3.02878 -1.08339,7.41771 -2.79048,9.1248c-5.32078,5.32078 -16.70074,16.70074 -20.22033,20.22033c-2.02131,2.02131 -6.10701,2.648 -8.66872,0.16572c-5.67446,-5.4985 -15.29864,-14.82426 -18.5279,-17.95339c-2.08358,-2.01898 -4.50267,-6.39362 -4.48368,-9.57489c0.06293,-10.5394 0.20201,-33.8366 0.23132,-38.74669c0.01065,-1.78383 1.78164,-3.42245 2.81085,-3.42245c0.26808,0 0.6127,0 0.98981,0c1.41591,0 3.28982,2.12116 3.28982,4.27075z"/></g></g></svg>