<svg version="1.1" xmlns="http://www.w3.org/2000/svg" xmlns:xlink="http://www.w3.org/1999/xlink" width="192.71186" height="62" viewBox="0,0,192.71186,62"><g transform="translate(-143.64407,-149)"><g data-paper-data="{&quot;isPaintingLayer&quot;:true}" fill-rule="nonzero" stroke="#ffffff" stroke-linejoin="miter" stroke-miterlimit="10" stroke-dasharray="" stroke-dashoffset="0" style="mix-blend-mode: normal"><path d="M146.14407,189.4c0,-6.90938 0,-14.06932 0,-18.4c0,-7.55327 9.03622,-19.5 18.15593,-19.5c22.1378,0 116.09125,0 153.8,0c9.7631,0 15.75593,11.65317 15.75593,19.1c0,4.22233 0,11.18595 0,18c0,10.1148 -6.56837,19.9 -17.15593,19.9c-38.63729,0 -130.80003,0 -152.6,0c-9.03286,0 -17.95593,-9.29787 -17.95593,-19.1z" fill="#000000" stroke-width="5" stroke-linecap="butt"/><path d="M183.1,164.7h13.8h-21.2v13.4h18.8v13.2h-21.6h11" fill="none" stroke-width="5" stroke-linecap="round"/><path d="M213.7,164.7h12.4h-24.8z" fill="none" stroke-width="5" stroke-linecap="round"/><path d="M213.5,164.91127v29.78873v-16.26761" fill="none" stroke-width="5" stroke-linecap="round"/><path d="M241.75288,177.24988l5.74712,17.42046l-9.65517,-28.75425l-10.34483,29.38391l7.12644,-20.14897" fill="none" stroke-width="2.5" stroke-linecap="round"/><path d="M233.47701,180.79809l9.1954,-0.19157" fill="none" stroke-width="2.5" stroke-linecap="round"/><path d="M263.9,164.7h13h-19.4v30.2v-10.13423" fill="none" stroke-width="5" stroke-linecap="round"/><path d="M294.7,164.7h12.4h-24.8z" fill="none" stroke-width="5" stroke-linecap="round"/><path d="M294.5,164.91127v29.78873v-16.26761" fill="none" stroke-width="5" stroke-linecap="round"/></g></g></svg>